# xmcd
# 
# Track frame offsets:
#     150
#     19943
#     39423
#     60306
#     81724
#     101104
# 
# Disc length: 1622
# 
# Revision: 5
# Processed by: cddbd v1.5.2PL0 Copyright (c) Steve Scherf et al.
# Submitted via: fre:ac v1.0.17
# 
DISCID=49065406
DTITLE=Amuro Namie 安室奈美恵 - Naked／Fight Together／Tempest (35th Single)
DYEAR=2011
DGENRE=J-Pop
TTITLE0=NAKED
TTITLE1=Fight Together
TTITLE2=Tempest
TTITLE3=NAKED (Extended Instrumental)
TTITLE4=Fight Together (Instrumental)
TTITLE5=Tempest (Instrumental)
EXTD=
EXTT0=
EXTT1=
EXTT2=
EXTT3=
EXTT4=
EXTT5=
PLAYORDER=
